# xmcd
#
# Track frame offsets:
# 150
# 17148
# 38184
# 50043
# 67034
# 85476
# 102411
# 122384
# 139624
# 156884
#
# Disc length: 2336 seconds
#
#
# Revision: 0
# Processed by: cddbd v1.5.2PL0 Copyright (c) Steve Scherf et al.
# Submitted via: FreeRIP 2.945 
#
DISCID=87091e0a
DTITLE=Jessica Meuse - Jessica Meuse
DYEAR=2006
DGENRE=Country
TTITLE0=Born to Fly
TTITLE1=Travelin' Soldier
TTITLE2=It Wasn't God Who Made Honky Tonk Angels
TTITLE3=Suds in the Bucket
TTITLE4=Strawberry Wine
TTITLE5=The First Cut is the Deepest
TTITLE6=I Could Not Ask for More
TTITLE7=Landslide
TTITLE8=Forever Everyday
TTITLE9=Good Time
EXTD=
EXTT0=
EXTT1=
EXTT2=
EXTT3=
EXTT4=
EXTT5=
EXTT6=
EXTT7=
EXTT8=
EXTT9=
PLAYORDER=
